<svg width="33" height="32" viewBox="0 0 33 32" fill="none" xmlns="http://www.w3.org/2000/svg">
<path d="M27.0391 15.9551H5.96091C5.13081 15.9551 4.45532 16.6306 4.45532 17.4607C4.45532 18.2908 5.13081 18.9662 5.96091 18.9662H27.0391C27.8692 18.9662 28.5447 18.2908 28.5447 17.4607C28.5447 16.6306 27.8692 15.9551 27.0391 15.9551Z" fill="#888B97"/>
<path d="M27.1775 17.9814C26.9055 17.9051 26.6325 18.0597 26.5572 18.3267L26.5181 18.4642H6.48276L6.44263 18.3267C6.36735 18.0597 6.09234 17.9071 5.82233 17.9814C5.55532 18.0577 5.40175 18.3357 5.47807 18.6017L6.86118 23.4436C7.28975 24.9442 8.67894 25.9921 10.2387 25.9921H22.7601C24.3209 25.9921 25.7091 24.9442 26.1377 23.4436L27.5208 18.6017C27.5981 18.3357 27.4435 18.0577 27.1775 17.9814ZM10.2397 23.9846C9.57123 23.9846 8.97502 23.5359 8.79233 22.8925L8.14093 20.6101C8.06466 20.3431 8.21922 20.0661 8.48519 19.9898C8.75417 19.9135 9.03021 20.0691 9.10549 20.3351L9.75689 22.6175C9.81913 22.8313 10.0168 22.9819 10.2397 22.9819C10.5167 22.9819 10.7415 23.2067 10.7415 23.4838C10.7416 23.7608 10.5167 23.9846 10.2397 23.9846Z" fill="#888B97"/>
<path d="M11.2034 25.0413C10.9555 24.9199 10.6554 25.0173 10.5299 25.2662L9.52619 27.2737C9.40273 27.5216 9.50309 27.8227 9.75104 27.9472C9.82429 27.9833 9.90061 28.0004 9.97589 28.0004C10.1596 28.0004 10.3362 27.899 10.4246 27.7224L11.4283 25.7149C11.5517 25.4669 11.4513 25.1658 11.2034 25.0413Z" fill="#888B97"/>
<path d="M23.4739 27.2745L22.4702 25.2671C22.3458 25.0181 22.0446 24.9188 21.7967 25.0422C21.5488 25.1667 21.4484 25.4678 21.5718 25.7157L22.5755 27.7232C22.6639 27.8988 22.8405 28.0002 23.0242 28.0002C23.0995 28.0002 23.1758 27.9832 23.2491 27.9481C23.497 27.8236 23.5974 27.5224 23.4739 27.2745Z" fill="#888B97"/>
<path d="M24.615 4C24.1031 4 23.6213 4.19973 23.259 4.5621L21.6661 6.15501C21.4704 6.35073 21.4704 6.66893 21.6661 6.86465C21.8618 7.06038 22.18 7.06038 22.3757 6.86465L23.9686 5.27274C24.1402 5.10011 24.3701 5.00474 24.62 5.00474C25.1238 5.00474 25.5334 5.41426 25.5334 5.91811V16.4572C25.5334 16.7342 25.7582 16.9591 26.0352 16.9591C26.3123 16.9591 26.5371 16.7342 26.5381 16.4562V5.91713C26.5381 4.86021 25.6789 4 24.615 4Z" fill="#888B97"/>
<path d="M22.8776 6.65706L21.8739 5.65335C21.7594 5.53892 21.5998 5.48571 21.4372 5.51281L18.9279 5.92435C18.7433 5.95447 18.5917 6.08493 18.5325 6.26161C18.4733 6.43828 18.5184 6.63499 18.6489 6.76847L21.6601 9.86997C21.7555 9.96934 21.8869 10.0226 22.0194 10.0226C22.0666 10.0226 22.1148 10.0155 22.1619 10.0015C22.3406 9.9493 22.4761 9.80175 22.5122 9.61906L23.0141 7.10977C23.0472 6.94613 22.996 6.77647 22.8776 6.65706Z" fill="#888B97"/>
<path d="M16.3523 10.0804C16.1566 9.88466 15.8384 9.88466 15.6427 10.0804L14.639 11.0841C14.4433 11.2798 14.4433 11.598 14.639 11.7937C14.7374 11.8911 14.8658 11.9403 14.9943 11.9403C15.1228 11.9403 15.2512 11.8911 15.3486 11.7937L16.3523 10.79C16.5481 10.5943 16.5481 10.2761 16.3523 10.0804Z" fill="#888B97"/>
<path d="M18.3599 12.0882C18.1642 11.8925 17.846 11.8925 17.6503 12.0882L16.6466 13.0919C16.4508 13.2876 16.4508 13.6058 16.6466 13.8016C16.7449 13.8989 16.8734 13.9481 17.0019 13.9481C17.1304 13.9481 17.2588 13.8989 17.3562 13.8016L18.3599 12.7978C18.5556 12.6021 18.5556 12.2839 18.3599 12.0882Z" fill="#888B97"/>
<path d="M19.3636 9.07648C19.1678 8.88076 18.8496 8.88076 18.6539 9.07648L17.6502 10.0802C17.4545 10.2759 17.4545 10.5941 17.6502 10.7898C17.7486 10.8872 17.877 10.9364 18.0055 10.9364C18.134 10.9364 18.2625 10.8872 18.3599 10.7898L19.3636 9.78613C19.5593 9.5904 19.5593 9.27221 19.3636 9.07648Z" fill="#888B97"/>
</svg>
