<svg width="28" height="28" viewBox="0 0 28 28" fill="none" xmlns="http://www.w3.org/2000/svg">
<path d="M17.5078 22.1642C17.7781 22.1648 18.0401 22.07 18.2482 21.8965C18.3654 21.7988 18.4622 21.6788 18.5332 21.5433C18.6042 21.4079 18.6479 21.2597 18.6619 21.1072C18.6758 20.9547 18.6598 20.801 18.6146 20.6548C18.5694 20.5086 18.496 20.3728 18.3986 20.2551L13.2158 14.0156L18.2135 7.7645C18.3096 7.64543 18.3814 7.50842 18.4247 7.36135C18.468 7.21428 18.482 7.06005 18.4659 6.90752C18.4497 6.75499 18.4038 6.60718 18.3307 6.47257C18.2576 6.33796 18.1588 6.2192 18.04 6.12314C17.9203 6.01717 17.7801 5.93723 17.6283 5.88835C17.4764 5.83947 17.3162 5.82271 17.1576 5.8391C16.999 5.8555 16.8454 5.90471 16.7066 5.98363C16.5678 6.06256 16.4467 6.1695 16.351 6.29775L10.7633 13.2823C10.5931 13.4906 10.5001 13.7518 10.5001 14.0215C10.5001 14.2911 10.5931 14.5524 10.7633 14.7607L16.5476 21.7452C16.6637 21.886 16.8111 21.9974 16.9779 22.0702C17.1448 22.143 17.3263 22.1752 17.5078 22.1642Z" fill="#3C4563"/>
</svg>
