<svg width="28" height="28" viewBox="0 0 28 28" fill="none" xmlns="http://www.w3.org/2000/svg">
<path d="M11.6589 5.83576C11.3886 5.83523 11.1266 5.92996 10.9185 6.1035C10.8014 6.20122 10.7045 6.32124 10.6336 6.45668C10.5626 6.59212 10.5189 6.74032 10.5049 6.89278C10.4909 7.04525 10.507 7.19899 10.5521 7.34521C10.5973 7.49142 10.6707 7.62723 10.7681 7.74486L15.9509 13.9844L10.9532 20.2355C10.8571 20.3546 10.7854 20.4916 10.7421 20.6386C10.6988 20.7857 10.6848 20.9399 10.7009 21.0925C10.717 21.245 10.7629 21.3928 10.836 21.5274C10.9091 21.662 11.0079 21.7808 11.1267 21.8769C11.2464 21.9828 11.3866 22.0628 11.5385 22.1116C11.6903 22.1605 11.8506 22.1773 12.0092 22.1609C12.1678 22.1445 12.3213 22.0953 12.4601 22.0164C12.5989 21.9374 12.72 21.8305 12.8158 21.7022L18.4035 14.7177C18.5736 14.5094 18.6667 14.2482 18.6667 13.9785C18.6667 13.7089 18.5736 13.4476 18.4035 13.2393L12.6191 6.25483C12.5031 6.11396 12.3556 6.0026 12.1888 5.92978C12.022 5.85697 11.8404 5.82476 11.6589 5.83576Z" fill="white"/>
</svg>
