<svg width="24" height="24" viewBox="0 0 24 24" fill="none" xmlns="http://www.w3.org/2000/svg">
<path d="M7 21.0002H4C3.45 21.0002 3 20.5502 3 20.0002V8.69018C3 8.27018 3.25 7.90018 3.64 7.75018L14.64 3.52018C14.7921 3.4615 14.9561 3.44088 15.118 3.46011C15.2798 3.47933 15.4345 3.53783 15.5686 3.6305C15.7027 3.72317 15.8121 3.8472 15.8873 3.99181C15.9624 4.13641 16.0012 4.2972 16 4.46018V10.0002H8C7.45 10.0002 7 10.4502 7 11.0002V21.0002ZM17 12.0002H10C9.45 12.0002 9 12.4502 9 13.0002V20.0002C9 20.5502 9.45 21.0002 10 21.0002H14V17.0002C14 16.4502 14.45 16.0002 15 16.0002C15.55 16.0002 16 16.4502 16 17.0002V21.0002H20C20.55 21.0002 21 20.5502 21 20.0002V12.0002C21 10.9002 20.1 10.0002 19 10.0002C17.9 10.0002 17 10.9002 17 12.0002Z" fill="#888B97"/>
</svg>
